<?xml version="1.0" encoding="UTF-8" standalone="no"?>
<svg
   viewBox="0 0 18 18"
   version="1.1"
   id="svg1"
   sodipodi:docname="flickrMinimal.svg"
   inkscape:version="1.3.2 (091e20e, 2023-11-25, custom)"
   width="18"
   height="18"
   xmlns:inkscape="http://www.inkscape.org/namespaces/inkscape"
   xmlns:sodipodi="http://sodipodi.sourceforge.net/DTD/sodipodi-0.dtd"
   xmlns="http://www.w3.org/2000/svg"
   xmlns:svg="http://www.w3.org/2000/svg">
  <defs
     id="defs1" />
  <sodipodi:namedview
     id="namedview1"
     pagecolor="#ffffff"
     bordercolor="#000000"
     borderopacity="0.25"
     inkscape:showpageshadow="2"
     inkscape:pageopacity="0.0"
     inkscape:pagecheckerboard="0"
     inkscape:deskcolor="#d1d1d1"
     inkscape:zoom="1.1430648"
     inkscape:cx="221.77221"
     inkscape:cy="190.71535"
     inkscape:window-width="1920"
     inkscape:window-height="1002"
     inkscape:window-x="-8"
     inkscape:window-y="-8"
     inkscape:window-maximized="1"
     inkscape:current-layer="svg1" />
  <!--!Font Awesome Free 6.5.2 by @fontawesome - https://fontawesome.com License - https://fontawesome.com/license/free Copyright 2024 Fonticons, Inc.-->
  <path
     d="M 16.071429,0 H 1.9285714 C 0.86383929,0 0,0.863839 0,1.928571 V 16.071429 C 0,17.136161 0.86383929,18 1.9285714,18 H 16.071429 C 17.136161,18 18,17.136161 18,16.071429 V 1.928571 C 18,0.863839 17.136161,0 16.071429,0 Z M 5.8058036,11.53125 c -1.4102679,0 -2.5513393,-1.141071 -2.5513393,-2.551339 0,-1.410268 1.1410714,-2.55134 2.5513393,-2.55134 1.4102678,0 2.5513393,1.141072 2.5513393,2.55134 0,1.410268 -1.1410715,2.551339 -2.5513393,2.551339 z m 6.3883924,0 c -1.410267,0 -2.5513389,-1.141071 -2.5513389,-2.551339 0,-1.410268 1.1410719,-2.55134 2.5513389,-2.55134 1.410268,0 2.55134,1.141072 2.55134,2.55134 0,1.410268 -1.141072,2.551339 -2.55134,2.551339 z"
     id="path1"
     style="fill:#bf616a;stroke-width:0.0401785" />
</svg>
