<?xml version="1.0" encoding="UTF-8" standalone="no"?>
<svg
   viewBox="0 0 18 18"
   version="1.1"
   id="svg1"
   sodipodi:docname="githubMinimal.svg"
   inkscape:version="1.3.2 (091e20e, 2023-11-25, custom)"
   width="18"
   height="18"
   xmlns:inkscape="http://www.inkscape.org/namespaces/inkscape"
   xmlns:sodipodi="http://sodipodi.sourceforge.net/DTD/sodipodi-0.dtd"
   xmlns="http://www.w3.org/2000/svg"
   xmlns:svg="http://www.w3.org/2000/svg">
  <defs
     id="defs1" />
  <sodipodi:namedview
     id="namedview1"
     pagecolor="#ffffff"
     bordercolor="#000000"
     borderopacity="0.25"
     inkscape:showpageshadow="2"
     inkscape:pageopacity="0.0"
     inkscape:pagecheckerboard="0"
     inkscape:deskcolor="#d1d1d1"
     inkscape:zoom="21.108272"
     inkscape:cx="7.1772809"
     inkscape:cy="15.633681"
     inkscape:window-width="1920"
     inkscape:window-height="1002"
     inkscape:window-x="-8"
     inkscape:window-y="-8"
     inkscape:window-maximized="1"
     inkscape:current-layer="svg1" />
  <!--!Font Awesome Free 6.5.2 by @fontawesome - https://fontawesome.com License - https://fontawesome.com/license/free Copyright 2024 Fonticons, Inc.-->
  <path
     d="m 6.0205623,14.356315 c 0,0.07258 -0.083468,0.130645 -0.1887098,0.130645 -0.1197581,0.01088 -0.2032258,-0.04717 -0.2032258,-0.130645 0,-0.07258 0.083468,-0.130645 0.1887096,-0.130645 0.1088707,-0.01088 0.203226,0.04718 0.203226,0.130645 z M 4.8919335,14.193009 c -0.025403,0.07258 0.047178,0.156048 0.1560482,0.177822 0.094355,0.03629 0.2032258,0 0.225,-0.07258 0.021774,-0.07258 -0.047178,-0.156048 -0.1560483,-0.188709 -0.094355,-0.02541 -0.1995967,0.01088 -0.2249999,0.08346 z m 1.6040319,-0.0617 c -0.1052419,0.02541 -0.1778226,0.09436 -0.1669354,0.177823 0.010887,0.07258 0.1052419,0.119758 0.2141125,0.09436 0.1052419,-0.0254 0.1778226,-0.09436 0.1669354,-0.166936 -0.010887,-0.06895 -0.1088705,-0.116127 -0.2141125,-0.105241 z M 8.8838678,0.22486911 C 3.8504017,0.22486911 0,4.0462388 0,9.0797043 0,13.104299 2.5330635,16.548249 6.1512074,17.760346 6.6157232,17.84381 6.77903,17.55712 6.77903,17.321233 c 0,-0.225 -0.010887,-1.466128 -0.010887,-2.228224 0,0 -2.5403219,0.544354 -3.0737895,-1.081452 0,0 -0.4137095,-1.056048 -1.0088705,-1.328225 0,0 -0.8310481,-0.569758 0.058064,-0.558871 0,0 0.9036287,0.07258 1.4008059,0.93629 0.7947577,1.400806 2.1266122,0.997984 2.6455637,0.758468 0.083468,-0.580646 0.319355,-0.983468 0.5806451,-1.222985 -2.0286276,-0.224998 -4.075401,-0.51895 -4.075401,-4.0100781 0,-0.9979833 0.2758064,-1.4987896 0.8564512,-2.1374988 C 4.0572573,6.2127702 3.7487892,5.24019 4.2459668,3.9845453 5.0044342,3.7486577 6.7499986,4.9643833 6.7499986,4.9643833 7.4758045,4.7611575 8.2560461,4.6559157 9.0290297,4.6559157 c 0.7729833,0 1.5532243,0.1052418 2.2790303,0.3084676 0,0 1.745564,-1.2193542 2.504031,-0.979838 0.497178,1.2592734 0.188711,2.2282249 0.09436,2.4641118 0.580645,0.6423386 0.936291,1.1431449 0.936291,2.1374988 0,3.5020151 -2.1375,3.7814501 -4.166129,4.0100781 0.333872,0.286694 0.616937,0.83105 0.616937,1.683871 0,1.222983 -0.01088,2.736289 -0.01088,3.03387 0,0.235888 0.166936,0.52258 0.627823,0.439113 C 15.539517,16.548249 18,13.104299 18,9.0797043 17.999999,4.0462388 13.917339,0.22486911 8.8838743,0.22486911 Z M 3.5274179,12.741396 c -0.047178,0.03629 -0.036291,0.119758 0.025403,0.18871 0.058064,0.05807 0.1415322,0.08346 0.1887096,0.03629 0.047178,-0.03629 0.03629,-0.119757 -0.025403,-0.188709 -0.058064,-0.05807 -0.1415322,-0.08346 -0.1887096,-0.03629 z M 3.1354826,12.447445 c -0.025403,0.04718 0.010887,0.105242 0.083468,0.141532 0.058064,0.03629 0.1306451,0.02541 0.1560483,-0.0254 0.025403,-0.04718 -0.010887,-0.105242 -0.083468,-0.141533 -0.072581,-0.02178 -0.130645,-0.01088 -0.1560482,0.02541 z m 1.1758059,1.291935 c -0.058064,0.04718 -0.03629,0.156048 0.047178,0.225 0.083468,0.08346 0.1887096,0.09436 0.2358869,0.03629 0.047178,-0.04718 0.025403,-0.156048 -0.047178,-0.225 C 4.4673374,13.6922 4.3584659,13.68131 4.3112885,13.73938 Z M 3.897579,13.205913 c -0.058064,0.03629 -0.058064,0.130644 0,0.214111 0.058064,0.08346 0.1560484,0.119759 0.2032257,0.08346 0.058064,-0.04718 0.058064,-0.141531 0,-0.225 -0.050807,-0.08346 -0.1451611,-0.119753 -0.2032257,-0.07258 z"
     id="path1"
     style="fill:#2e3440;stroke-width:0.0362903" />
</svg>
